<svg viewBox="0 0 909 594" x="0" y="0" fill="none" xmlns="http://www.w3.org/2000/svg"><defs><mask id="mask0_7_38" style="mask-type:luminance" maskUnits="userSpaceOnUse" x="0" y="0" width="909" height="594" xmlns="http://www.w3.org/2000/svg"><g id="clip-path" data-node-id="36:105"><path id="path991-3" data-node-id="36:106" d="M114.569,121.398c36.221,-87.413 197.865,-123.787 248.034,-120.918c50.17,2.869 279.727,8.135 351.697,79.637c71.97,71.502 5.1,109.48 22.97,137.227c17.87,27.748 125.42,40.942 142.37,81.166c16.95,40.225 44.28,137.907 16.99,225.79c-27.29,87.89 -365.81,68.37 -393.71,65.11c-27.898,-3.27 -216.42,-34.87 -262.173,-23.32c-45.753,11.56 -99.772,21.13 -145.827,-7.4c-46.055,-28.52 -100.339,-131.39 -93.544,-184.695c6.795,-53.306 86.617,-75.9 100.15,-122.467c13.533,-46.566 5.342,-111.575 13.043,-130.13z" fill="white"/></g></mask><linearGradient id="paint0_linear_7_38" x1="734.5999999999999" y1="190.615" x2="756.47" y2="190.615" gradientUnits="userSpaceOnUse" xmlns="http://www.w3.org/2000/svg"><stop stop-color="#808080" stop-opacity="0.25"/><stop offset="0.54" stop-color="#808080" stop-opacity="0.12"/><stop offset="1" stop-color="#808080" stop-opacity="0.1"/></linearGradient><linearGradient id="paint1_linear_7_38" x1="603.99" y1="346.58399999999995" x2="603.99" y2="207.98400000000004" gradientUnits="userSpaceOnUse" xmlns="http://www.w3.org/2000/svg"><stop stop-color="#808080" stop-opacity="0.25"/><stop offset="0.54" stop-color="#808080" stop-opacity="0.12"/><stop offset="1" stop-color="#808080" stop-opacity="0.1"/></linearGradient><linearGradient id="paint2_linear_7_38" x1="680.1500000000001" y1="373.231" x2="680.1500000000001" y2="232.29899999999998" gradientUnits="userSpaceOnUse" xmlns="http://www.w3.org/2000/svg"><stop stop-color="#808080" stop-opacity="0.25"/><stop offset="0.54" stop-color="#808080" stop-opacity="0.12"/><stop offset="1" stop-color="#808080" stop-opacity="0.1"/></linearGradient><linearGradient id="paint3_linear_7_38" x1="679.76" y1="240.79100000000005" x2="679.76" y2="197.54200000000003" gradientUnits="userSpaceOnUse" xmlns="http://www.w3.org/2000/svg"><stop stop-color="#808080" stop-opacity="0.25"/><stop offset="0.54" stop-color="#808080" stop-opacity="0.12"/><stop offset="1" stop-color="#808080" stop-opacity="0.1"/></linearGradient><linearGradient id="paint4_linear_7_38" x1="620.1099999999999" y1="299.095" x2="620.1099999999999" y2="260.869" gradientUnits="userSpaceOnUse" xmlns="http://www.w3.org/2000/svg"><stop stop-color="#808080" stop-opacity="0.25"/><stop offset="0.54" stop-color="#808080" stop-opacity="0.12"/><stop offset="1" stop-color="#808080" stop-opacity="0.1"/></linearGradient><linearGradient id="paint5_linear_7_38" x1="738.6400000000001" y1="299.095" x2="738.6400000000001" y2="260.869" gradientUnits="userSpaceOnUse" xmlns="http://www.w3.org/2000/svg"><stop stop-color="#808080" stop-opacity="0.25"/><stop offset="0.54" stop-color="#808080" stop-opacity="0.12"/><stop offset="1" stop-color="#808080" stop-opacity="0.1"/></linearGradient><linearGradient id="paint6_linear_7_38" x1="679.3800000000001" y1="262.211" x2="679.3800000000001" y2="139.91200000000003" gradientUnits="userSpaceOnUse" xmlns="http://www.w3.org/2000/svg"><stop stop-color="#808080" stop-opacity="0.25"/><stop offset="0.54" stop-color="#808080" stop-opacity="0.12"/><stop offset="1" stop-color="#808080" stop-opacity="0.1"/></linearGradient><linearGradient id="paint7_linear_7_38" x1="679.5699999999999" y1="368.019" x2="679.5699999999999" y2="304.11400000000003" gradientUnits="userSpaceOnUse" xmlns="http://www.w3.org/2000/svg"><stop stop-color="#808080" stop-opacity="0.25"/><stop offset="0.54" stop-color="#808080" stop-opacity="0.12"/><stop offset="1" stop-color="#808080" stop-opacity="0.1"/></linearGradient><linearGradient id="paint8_linear_7_38" x1="691.3399999999999" y1="341.18399999999997" x2="691.3399999999999" y2="331.91700000000003" gradientUnits="userSpaceOnUse" xmlns="http://www.w3.org/2000/svg"><stop stop-color="#808080" stop-opacity="0.25"/><stop offset="0.54" stop-color="#808080" stop-opacity="0.12"/><stop offset="1" stop-color="#808080" stop-opacity="0.1"/></linearGradient><linearGradient id="paint9_linear_7_38" x1="678.8" y1="377.47900000000004" x2="678.8" y2="358.946" gradientUnits="userSpaceOnUse" xmlns="http://www.w3.org/2000/svg"><stop stop-color="#808080" stop-opacity="0.25"/><stop offset="0.54" stop-color="#808080" stop-opacity="0.12"/><stop offset="1" stop-color="#808080" stop-opacity="0.1"/></linearGradient><linearGradient id="paint10_linear_7_38" x1="570.8299999999999" y1="349.39700000000005" x2="570.8299999999999" y2="280.82899999999995" gradientUnits="userSpaceOnUse" xmlns="http://www.w3.org/2000/svg"><stop stop-color="#808080" stop-opacity="0.25"/><stop offset="0.54" stop-color="#808080" stop-opacity="0.12"/><stop offset="1" stop-color="#808080" stop-opacity="0.1"/></linearGradient><linearGradient id="paint11_linear_7_38" x1="573.3499999999999" y1="376.88199999999995" x2="573.3499999999999" y2="300.76300000000003" gradientUnits="userSpaceOnUse" xmlns="http://www.w3.org/2000/svg"><stop stop-color="#808080" stop-opacity="0.25"/><stop offset="0.54" stop-color="#808080" stop-opacity="0.12"/><stop offset="1" stop-color="#808080" stop-opacity="0.1"/></linearGradient><linearGradient id="paint12_linear_7_38" x1="601.51" y1="352.437" x2="601.51" y2="295.073" gradientUnits="userSpaceOnUse" xmlns="http://www.w3.org/2000/svg"><stop stop-color="#808080" stop-opacity="0.25"/><stop offset="0.54" stop-color="#808080" stop-opacity="0.12"/><stop offset="1" stop-color="#808080" stop-opacity="0.1"/></linearGradient><linearGradient id="paint13_linear_7_38" x1="599.19" y1="376.496" x2="599.19" y2="312.606" gradientUnits="userSpaceOnUse" xmlns="http://www.w3.org/2000/svg"><stop stop-color="#808080" stop-opacity="0.25"/><stop offset="0.54" stop-color="#808080" stop-opacity="0.12"/><stop offset="1" stop-color="#808080" stop-opacity="0.1"/></linearGradient><linearGradient id="paint14_linear_7_38" x1="768.56" y1="358.28200000000004" x2="768.56" y2="295.94100000000003" gradientUnits="userSpaceOnUse" xmlns="http://www.w3.org/2000/svg"><stop stop-color="#808080" stop-opacity="0.25"/><stop offset="0.54" stop-color="#808080" stop-opacity="0.12"/><stop offset="1" stop-color="#808080" stop-opacity="0.1"/></linearGradient><linearGradient id="paint15_linear_7_38" x1="766.27" y1="383.26800000000003" x2="766.27" y2="314.062" gradientUnits="userSpaceOnUse" xmlns="http://www.w3.org/2000/svg"><stop stop-color="#808080" stop-opacity="0.25"/><stop offset="0.54" stop-color="#808080" stop-opacity="0.12"/><stop offset="1" stop-color="#808080" stop-opacity="0.1"/></linearGradient><linearGradient id="paint16_linear_7_38" x1="740.6700000000001" y1="361.047" x2="740.6700000000001" y2="308.89200000000005" gradientUnits="userSpaceOnUse" xmlns="http://www.w3.org/2000/svg"><stop stop-color="#808080" stop-opacity="0.25"/><stop offset="0.54" stop-color="#808080" stop-opacity="0.12"/><stop offset="1" stop-color="#808080" stop-opacity="0.1"/></linearGradient><linearGradient id="paint17_linear_7_38" x1="742.78" y1="382.91999999999996" x2="742.78" y2="324.83399999999995" gradientUnits="userSpaceOnUse" xmlns="http://www.w3.org/2000/svg"><stop stop-color="#808080" stop-opacity="0.25"/><stop offset="0.54" stop-color="#808080" stop-opacity="0.12"/><stop offset="1" stop-color="#808080" stop-opacity="0.1"/></linearGradient></defs><g id="g1156" data-node-id="36:42" xmlns="http://www.w3.org/2000/svg"><g id="Clip path group" data-node-id="36:107"><mask id="mask0_7_38" style="mask-type:luminance" maskUnits="userSpaceOnUse" x="0" y="0" width="909" height="594"><g id="clip-path" data-node-id="36:105"><path id="path991-3" data-node-id="36:106" d="M114.569,121.398c36.221,-87.413 197.865,-123.787 248.034,-120.918c50.17,2.869 279.727,8.135 351.697,79.637c71.97,71.502 5.1,109.48 22.97,137.227c17.87,27.748 125.42,40.942 142.37,81.166c16.95,40.225 44.28,137.907 16.99,225.79c-27.29,87.89 -365.81,68.37 -393.71,65.11c-27.898,-3.27 -216.42,-34.87 -262.173,-23.32c-45.753,11.56 -99.772,21.13 -145.827,-7.4c-46.055,-28.52 -100.339,-131.39 -93.544,-184.695c6.795,-53.306 86.617,-75.9 100.15,-122.467c13.533,-46.566 5.342,-111.575 13.043,-130.13z" fill="white"/></g></mask><g mask="url(#mask0_7_38)"><g id="g1120" data-node-id="36:43"><path id="rect998" data-node-id="36:44" d="M941.89,-146.185h-964.863v964.915h964.863z" stroke="#ECECEC" stroke-width="1.55988" stroke-linecap="round" stroke-linejoin="round"/><path id="line1014" data-node-id="36:52" d="M-22.973,569.72h964.863" stroke="#ECECEC" stroke-width="1.55988" stroke-linecap="round" stroke-linejoin="round"/><path id="line1016" data-node-id="36:53" d="M-22.973,538.59h964.863" stroke="#ECECEC" stroke-width="1.55988" stroke-linecap="round" stroke-linejoin="round"/><path id="line1018" data-node-id="36:54" d="M-22.973,507.47h964.863" stroke="#ECECEC" stroke-width="1.55988" stroke-linecap="round" stroke-linejoin="round"/><path id="line1020" data-node-id="36:55" d="M-22.973,476.34h964.863" stroke="#ECECEC" stroke-width="1.55988" stroke-linecap="round" stroke-linejoin="round"/><path id="line1022" data-node-id="36:56" d="M-22.973,445.213h964.863" stroke="#ECECEC" stroke-width="1.55988" stroke-linecap="round" stroke-linejoin="round"/><path id="line1024" data-node-id="36:57" d="M-22.973,414.087h964.863" stroke="#ECECEC" stroke-width="1.55988" stroke-linecap="round" stroke-linejoin="round"/><path id="line1026" data-node-id="36:58" d="M-22.973,382.961h964.863" stroke="#ECECEC" stroke-width="1.55988" stroke-linecap="round" stroke-linejoin="round"/><path id="line1028" data-node-id="36:59" d="M-22.973,351.835h964.863" stroke="#ECECEC" stroke-width="1.55988" stroke-linecap="round" stroke-linejoin="round"/><path id="line1030" data-node-id="36:60" d="M-22.973,320.708h964.863" stroke="#ECECEC" stroke-width="1.55988" stroke-linecap="round" stroke-linejoin="round"/><path id="line1032" data-node-id="36:61" d="M-22.973,289.582h964.863" stroke="#ECECEC" stroke-width="1.55988" stroke-linecap="round" stroke-linejoin="round"/><path id="line1034" data-node-id="36:62" d="M-22.973,258.456h964.863" stroke="#ECECEC" stroke-width="1.55988" stroke-linecap="round" stroke-linejoin="round"/><path id="line1036" data-node-id="36:63" d="M-22.973,227.33h964.863" stroke="#ECECEC" stroke-width="1.55988" stroke-linecap="round" stroke-linejoin="round"/><path id="line1038" data-node-id="36:64" d="M-22.973,196.203h964.863" stroke="#ECECEC" stroke-width="1.55988" stroke-linecap="round" stroke-linejoin="round"/><path id="line1040" data-node-id="36:65" d="M-22.973,165.077h964.863" stroke="#ECECEC" stroke-width="1.55988" stroke-linecap="round" stroke-linejoin="round"/><path id="line1042" data-node-id="36:66" d="M-22.973,133.951h964.863" stroke="#ECECEC" stroke-width="1.55988" stroke-linecap="round" stroke-linejoin="round"/><path id="line1044" data-node-id="36:67" d="M-22.973,102.825h964.863" stroke="#ECECEC" stroke-width="1.55988" stroke-linecap="round" stroke-linejoin="round"/><path id="line1046" data-node-id="36:68" d="M-22.973,71.698h964.863" stroke="#ECECEC" stroke-width="1.55988" stroke-linecap="round" stroke-linejoin="round"/><path id="line1048" data-node-id="36:69" d="M-22.973,40.572h964.863" stroke="#ECECEC" stroke-width="1.55988" stroke-linecap="round" stroke-linejoin="round"/><path id="line1050" data-node-id="36:70" d="M-22.973,9.446h964.863" stroke="#ECECEC" stroke-width="1.55988" stroke-linecap="round" stroke-linejoin="round"/><path id="line1062" data-node-id="36:76" d="M879.64,-146.185v964.915" stroke="#ECECEC" stroke-width="1.55988" stroke-linecap="round" stroke-linejoin="round"/><path id="line1064" data-node-id="36:77" d="M848.52,-146.185v964.915" stroke="#ECECEC" stroke-width="1.55988" stroke-linecap="round" stroke-linejoin="round"/><path id="line1066" data-node-id="36:78" d="M817.39,-146.185v964.915" stroke="#ECECEC" stroke-width="1.55988" stroke-linecap="round" stroke-linejoin="round"/><path id="line1068" data-node-id="36:79" d="M786.27,-146.185v964.915" stroke="#ECECEC" stroke-width="1.55988" stroke-linecap="round" stroke-linejoin="round"/><path id="line1070" data-node-id="36:80" d="M755.14,-146.185v964.915" stroke="#ECECEC" stroke-width="1.55988" stroke-linecap="round" stroke-linejoin="round"/><path id="line1072" data-node-id="36:81" d="M724.02,-146.185v964.915" stroke="#ECECEC" stroke-width="1.55988" stroke-linecap="round" stroke-linejoin="round"/><path id="line1074" data-node-id="36:82" d="M692.89,-146.185v964.915" stroke="#ECECEC" stroke-width="1.55988" stroke-linecap="round" stroke-linejoin="round"/><path id="line1076" data-node-id="36:83" d="M661.77,-146.185v964.915" stroke="#ECECEC" stroke-width="1.55988" stroke-linecap="round" stroke-linejoin="round"/><path id="line1078" data-node-id="36:84" d="M630.65,-146.185v964.915" stroke="#ECECEC" stroke-width="1.55988" stroke-linecap="round" stroke-linejoin="round"/><path id="line1080" data-node-id="36:85" d="M599.52,-146.185v964.915" stroke="#ECECEC" stroke-width="1.55988" stroke-linecap="round" stroke-linejoin="round"/><path id="line1082" data-node-id="36:86" d="M568.4,-146.185v964.915" stroke="#ECECEC" stroke-width="1.55988" stroke-linecap="round" stroke-linejoin="round"/><path id="line1084" data-node-id="36:87" d="M537.27,-146.185v964.915" stroke="#ECECEC" stroke-width="1.55988" stroke-linecap="round" stroke-linejoin="round"/><path id="line1086" data-node-id="36:88" d="M506.15,-146.185v964.915" stroke="#ECECEC" stroke-width="1.55988" stroke-linecap="round" stroke-linejoin="round"/><path id="line1088" data-node-id="36:89" d="M475.022,-146.185v964.915" stroke="#ECECEC" stroke-width="1.55988" stroke-linecap="round" stroke-linejoin="round"/><path id="line1090" data-node-id="36:90" d="M443.897,-146.185v964.915" stroke="#ECECEC" stroke-width="1.55988" stroke-linecap="round" stroke-linejoin="round"/><path id="line1092" data-node-id="36:91" d="M412.773,-146.185v964.915" stroke="#ECECEC" stroke-width="1.55988" stroke-linecap="round" stroke-linejoin="round"/><path id="line1094" data-node-id="36:92" d="M381.648,-146.185v964.915" stroke="#ECECEC" stroke-width="1.55988" stroke-linecap="round" stroke-linejoin="round"/><path id="line1096" data-node-id="36:93" d="M350.523,-146.185v964.915" stroke="#ECECEC" stroke-width="1.55988" stroke-linecap="round" stroke-linejoin="round"/><path id="line1098" data-node-id="36:94" d="M319.399,-146.185v964.915" stroke="#ECECEC" stroke-width="1.55988" stroke-linecap="round" stroke-linejoin="round"/><path id="line1100" data-node-id="36:95" d="M288.274,-146.185v964.915" stroke="#ECECEC" stroke-width="1.55988" stroke-linecap="round" stroke-linejoin="round"/><path id="line1102" data-node-id="36:96" d="M257.149,-146.185v964.915" stroke="#ECECEC" stroke-width="1.55988" stroke-linecap="round" stroke-linejoin="round"/><path id="line1104" data-node-id="36:97" d="M226.025,-146.185v964.915" stroke="#ECECEC" stroke-width="1.55988" stroke-linecap="round" stroke-linejoin="round"/><path id="line1106" data-node-id="36:98" d="M194.9,-146.185v964.915" stroke="#ECECEC" stroke-width="1.55988" stroke-linecap="round" stroke-linejoin="round"/><path id="line1108" data-node-id="36:99" d="M163.775,-146.185v964.915" stroke="#ECECEC" stroke-width="1.55988" stroke-linecap="round" stroke-linejoin="round"/><path id="line1110" data-node-id="36:100" d="M132.651,-146.185v964.915" stroke="#ECECEC" stroke-width="1.55988" stroke-linecap="round" stroke-linejoin="round"/><path id="line1112" data-node-id="36:101" d="M101.526,-146.185v964.915" stroke="#ECECEC" stroke-width="1.55988" stroke-linecap="round" stroke-linejoin="round"/><path id="line1114" data-node-id="36:102" d="M70.401,-146.185v964.915" stroke="#ECECEC" stroke-width="1.55988" stroke-linecap="round" stroke-linejoin="round"/><path id="line1116" data-node-id="36:103" d="M39.277,-146.185v964.915" stroke="#ECECEC" stroke-width="1.55988" stroke-linecap="round" stroke-linejoin="round"/><path id="line1118" data-node-id="36:104" d="M8.152,-146.185v964.915" stroke="#ECECEC" stroke-width="1.55988" stroke-linecap="round" stroke-linejoin="round"/></g></g></g><g id="g1409" data-node-id="36:108"><path id="polygon39" data-node-id="36:109" d="M734.6,167.804h21.87v45.617l-21.87,-21.005z" fill="url(#paint0_linear_7_38)"/><path id="polygon41" data-node-id="36:110" d="M737.19,172.623h16.31v40.798l-16.31,-19.3z" fill="#368996"/><path id="&lt;Path>" data-node-id="36:111" d="M560.37,234.067c-4.29,-4.569 -6.67,-10.598 -6.68,-16.861c0,-9.026 4.91,-16.936 12.28,-21.395c-1.66,-2.423 -2.56,-5.295 -2.56,-8.236c0,-8.262 6.94,-14.963 15.49,-14.963c7.04,0 12.97,4.548 14.86,10.771c2.11,-3.317 5.03,-6.044 8.48,-7.925c3.45,-1.882 7.32,-2.858 11.25,-2.835c12.75,0 23.08,9.982 23.08,22.295c0,2.631 -0.48,5.24 -1.41,7.698c0.46,-0.033 0.93,-0.07 1.41,-0.07c10.23,0 18.53,8.014 18.53,17.895c0,0.603 -0.03,1.206 -0.09,1.805c8.18,3.407 13.91,11.265 13.91,20.416c0,12.273 -10.3,22.24 -23,22.24c-1.34,-0.008 -2.67,-0.127 -3.98,-0.356c0.07,0.741 0.11,1.483 0.11,2.246c0,13.774 -11.56,24.938 -25.81,24.938c-5.23,0.011 -10.35,-1.537 -14.7,-4.448c-3.51,2.887 -7.93,4.46 -12.48,4.448c-10.64,0 -19.27,-8.34 -19.27,-18.629c0,-0.445 0.04,-0.882 0.07,-1.323h-0.07c-11.4,0 -20.65,-8.933 -20.65,-19.949c-0.02,-7.747 4.55,-14.456 11.23,-17.762z" fill="#009688"/><path id="rect64" data-node-id="36:113" d="M607.77,207.984h-7.55v138.596h7.55z" fill="url(#paint1_linear_7_38)"/><path id="rect66" data-node-id="36:114" d="M606.2,207.984h-4.17v138.596h4.17z" fill="#795548"/><path id="rect69" data-node-id="36:116" d="M581.28,222.788l-2.98,2.922l24.75,25.246l2.98,-2.922z" fill="#795548"/><path id="rect72" data-node-id="36:118" d="M628.99,251.474l-25.65,18.004l2.4,3.417l25.65,-18.005z" fill="#795548"/><path id="path74" data-node-id="36:119" d="M773.22,232.299h-186.13c-4.26,0 -7.7,1.912 -7.7,4.277v136.655h201.54v-136.655c0,-2.365 -3.45,-4.277 -7.71,-4.277z" fill="url(#paint2_linear_7_38)"/><path id="polygon76" data-node-id="36:120" d="M582.46,226.235v141.784h194.79v-136.639l-97.68,-77.275z" fill="white"/><path id="circle78" data-node-id="36:121" d="M679.76,240.791c11.94,0 21.62,-9.682 21.62,-21.625c0,-11.942 -9.68,-21.624 -21.62,-21.624c-11.94,0 -21.62,9.682 -21.62,21.624c0,11.943 9.68,21.625 21.62,21.625z" fill="url(#paint3_linear_7_38)"/><path id="rect80" data-node-id="36:122" d="M639.22,260.869h-38.22v38.226h38.22z" fill="url(#paint4_linear_7_38)"/><path id="rect82" data-node-id="36:123" d="M757.75,260.869h-38.22v38.226h38.22z" fill="url(#paint5_linear_7_38)"/><path id="polygon84" data-node-id="36:124" d="M679.97,172.89l-116.24,89.321l-5.17,-28.963l121.43,-93.336l120.21,95.2l-3.33,25.987z" fill="url(#paint6_linear_7_38)"/><path id="polygon86" data-node-id="36:125" d="M679.95,165.892l-115.98,90.503l-3.56,-20.012l119.55,-93.294l118.39,93.302l-3.58,19.993z" fill="#368996"/><path id="rect88" data-node-id="36:126" d="M702.93,304.114h-46.72v63.905h46.72z" fill="url(#paint7_linear_7_38)"/><path id="rect90" data-node-id="36:127" d="M701.58,305.467h-44.02v62.552h44.02z" fill="#368996"/><path id="rect92" data-node-id="36:128" d="M638.26,262.219h-35.53v12.55h35.53z" fill="#368996"/><path id="rect94" data-node-id="36:129" opacity="0.2" d="M638.26,274.769h-35.53v22.973h35.53z" fill="#368996"/><path id="rect96" data-node-id="36:130" d="M756.4,262.219h-35.52v12.55h35.52z" fill="#368996"/><path id="rect98" data-node-id="36:131" opacity="0.2" d="M756.4,274.769h-35.52v22.973h35.52z" fill="#368996"/><path id="path100" data-node-id="36:132" d="M679.57,238.667c2.58,0 5.15,-0.51 7.54,-1.501c2.39,-0.991 4.56,-2.443 6.39,-4.274c1.83,-1.83 3.28,-4.004 4.27,-6.395c0.98,-2.391 1.49,-4.954 1.49,-7.542h-39.38c-0.01,2.588 0.5,5.151 1.49,7.542c0.99,2.391 2.44,4.565 4.27,6.395c1.83,1.831 4,3.283 6.39,4.274c2.39,0.991 4.95,1.501 7.54,1.501z" fill="#368996"/><path id="path102" data-node-id="36:133" opacity="0.2" d="M679.57,238.474c5.22,0 10.23,-2.075 13.92,-5.768c3.69,-3.693 5.77,-8.702 5.77,-13.925h-39.38c0,5.223 2.07,10.232 5.76,13.925c3.7,3.693 8.7,5.768 13.93,5.768z" fill="black"/><path id="path104" data-node-id="36:134" opacity="0.2" d="M679.57,199.281c-5.22,0 -10.23,2.072 -13.92,5.761c-3.69,3.689 -5.77,8.693 -5.77,13.913h39.38c-0.01,-5.22 -2.08,-10.224 -5.77,-13.913c-3.7,-3.689 -8.7,-5.761 -13.92,-5.761z" fill="#368996"/><path id="path106" data-node-id="36:135" opacity="0.2" d="M679.57,199.281c-5.22,0 -10.23,2.072 -13.92,5.761c-3.69,3.689 -5.77,8.693 -5.77,13.913h39.38c-0.01,-5.22 -2.08,-10.224 -5.77,-13.913c-3.7,-3.689 -8.7,-5.761 -13.92,-5.761z" fill="#368996"/><path id="circle108" data-node-id="36:136" d="M691.34,341.183c2.56,0 4.64,-2.074 4.64,-4.633c0,-2.559 -2.08,-4.633 -4.64,-4.633c-2.56,0 -4.63,2.074 -4.63,4.633c0,2.559 2.07,4.633 4.63,4.633z" fill="url(#paint8_linear_7_38)"/><path id="circle110" data-node-id="36:137" d="M691.34,340.027c1.92,0 3.48,-1.557 3.48,-3.477c0,-1.92 -1.56,-3.477 -3.48,-3.477c-1.92,0 -3.47,1.557 -3.47,3.477c0,1.92 1.55,3.477 3.47,3.477z" fill="#263238"/><path id="rect112" data-node-id="36:138" d="M707.17,358.946h-56.75v18.533h56.75z" fill="url(#paint9_linear_7_38)"/><path id="rect114" data-node-id="36:139" d="M706.01,360.488h-54.44v15.83h54.44z" fill="white"/><g id="&lt;Group>" data-node-id="36:140"><path id="path116" data-node-id="36:141" d="M597.29,316.205c1.39,-1.587 2.41,-3.453 3.02,-5.472c0.6,-2.019 0.77,-4.144 0.48,-6.231c-0.29,-2.088 -1.02,-4.089 -2.15,-5.869c-1.13,-1.78 -2.63,-3.297 -4.39,-4.449c0.91,-1.413 1.4,-3.059 1.39,-4.741c0.05,-2.052 -0.65,-4.053 -1.97,-5.623c-1.32,-1.57 -3.18,-2.601 -5.21,-2.898c-2.03,-0.297 -4.1,0.16 -5.82,1.286c-1.71,1.125 -2.96,2.841 -3.5,4.822c-1.09,-1.881 -2.66,-3.442 -4.55,-4.53c-1.88,-1.088 -4.02,-1.664 -6.2,-1.671c-6.93,0 -12.55,5.745 -12.55,12.836c0,1.516 0.26,3.021 0.77,4.448c-0.25,-0.019 -0.51,-0.041 -0.77,-0.041c-5.56,0 -10.07,4.611 -10.07,10.301c0,0.352 0,0.697 0.05,1.041c-2.26,1.016 -4.18,2.667 -5.53,4.754c-1.34,2.087 -2.05,4.518 -2.03,7c0,7.065 5.6,12.791 12.51,12.791c0.72,-0.001 1.45,-0.067 2.16,-0.196c-0.04,0.426 -0.06,0.856 -0.06,1.293c0,7.929 6.3,14.356 14.04,14.356c2.86,0.001 5.66,-0.893 7.99,-2.557c1.88,1.647 4.29,2.556 6.78,2.557c5.79,0 10.49,-4.818 10.49,-10.723c0,-0.256 -0.02,-0.508 -0.04,-0.76h0.04c6.2,0 11.23,-5.141 11.23,-11.49c0.01,-2.101 -0.55,-4.165 -1.63,-5.969c-1.08,-1.804 -2.63,-3.279 -4.48,-4.265z" fill="url(#paint10_linear_7_38)"/></g><path id="&lt;Path>_2" data-node-id="36:142" d="M595.67,316.138c1.3,-1.489 2.26,-3.241 2.83,-5.136c0.57,-1.896 0.72,-3.891 0.45,-5.85c-0.27,-1.96 -0.96,-3.839 -2.02,-5.51c-1.06,-1.67 -2.46,-3.094 -4.12,-4.175c0.86,-1.326 1.31,-2.871 1.31,-4.448c0.05,-1.927 -0.61,-3.805 -1.85,-5.279c-1.24,-1.474 -2.98,-2.442 -4.89,-2.721c-1.91,-0.279 -3.85,0.151 -5.46,1.207c-1.62,1.057 -2.78,2.668 -3.29,4.528c-1.03,-1.763 -2.5,-3.228 -4.27,-4.249c-1.76,-1.02 -3.77,-1.562 -5.81,-1.57c-6.5,0 -11.78,5.393 -11.78,12.046c0,1.418 0.25,2.825 0.73,4.159c-0.24,0 -0.48,-0.037 -0.73,-0.037c-5.22,0 -9.45,4.329 -9.45,9.67c0,0.33 0,0.656 0.05,0.975c-2.13,0.953 -3.93,2.503 -5.19,4.461c-1.26,1.958 -1.93,4.241 -1.91,6.57c0,6.631 5.25,12.009 11.74,12.009c0.68,0 1.36,-0.061 2.03,-0.181c-0.03,0.4 -0.06,0.804 -0.06,1.212c0,7.442 5.9,13.473 13.18,13.473c2.69,0.001 5.31,-0.839 7.5,-2.402c1.76,1.547 4.02,2.4 6.37,2.402c5.44,0 9.84,-4.507 9.84,-10.067c0,-0.241 -0.02,-0.478 -0.04,-0.715h0.04c5.82,0 10.54,-4.819 10.54,-10.779c0.01,-1.971 -0.52,-3.907 -1.53,-5.597c-1.02,-1.691 -2.47,-3.073 -4.21,-3.996z" fill="#00897B"/><path id="rect120" data-node-id="36:143" d="M574.88,300.763h-3.06v76.119h3.06z" fill="url(#paint11_linear_7_38)"/><path id="rect122" data-node-id="36:144" d="M574.23,301.831h-1.54v75.051h1.54z" fill="#795548"/><path id="rect124" data-node-id="36:145" d="M585.19,310.291l-12.63,13.642l1.12,1.045l12.64,-13.641z" fill="#795548"/><path id="rect126" data-node-id="36:146" d="M560.48,325.861l-0.92,1.234l13.1,9.726l0.91,-1.234z" fill="#795548"/><g id="&lt;Group>_2" data-node-id="36:147"><path id="path128" data-node-id="36:148" d="M578.07,324.671c-2.06,-2.199 -3.21,-5.103 -3.22,-8.122c0.02,-2.083 0.57,-4.128 1.61,-5.934c1.04,-1.806 2.53,-3.311 4.32,-4.37c-0.8,-1.166 -1.23,-2.549 -1.23,-3.966c0,-3.981 3.34,-7.206 7.46,-7.206c1.59,-0.018 3.14,0.477 4.43,1.411c1.29,0.935 2.25,2.26 2.72,3.779c1.02,-1.6 2.43,-2.916 4.09,-3.824c1.67,-0.907 3.53,-1.377 5.43,-1.366c6.14,0 11.12,4.819 11.12,10.75c0,1.266 -0.23,2.523 -0.68,3.706c0.22,0 0.45,-0.033 0.68,-0.033c4.92,0 8.92,3.858 8.92,8.618c0,0.291 -0.02,0.581 -0.05,0.871c1.97,0.792 3.65,2.15 4.85,3.9c1.19,1.751 1.83,3.815 1.85,5.933c0,5.912 -4.96,10.705 -11.08,10.705c-0.64,-0.001 -1.28,-0.055 -1.91,-0.163c0.03,0.37 0.05,0.715 0.05,1.082c0,6.631 -5.56,12.009 -12.43,12.009c-2.52,0.007 -4.99,-0.737 -7.08,-2.138c-1.7,1.385 -3.83,2.136 -6.02,2.124c-5.13,0 -9.28,-4.018 -9.28,-8.974c0,-0.215 0,-0.426 0.03,-0.638h-0.03c-5.49,0 -9.95,-4.303 -9.95,-9.607c0.02,-1.787 0.53,-3.534 1.48,-5.045c0.96,-1.51 2.32,-2.724 3.92,-3.502z" fill="url(#paint12_linear_7_38)"/></g><path id="&lt;Path>_3" data-node-id="36:149" d="M579.08,324.63c-1.98,-2.108 -3.08,-4.891 -3.08,-7.784c0.01,-1.993 0.53,-3.949 1.53,-5.677c0.99,-1.729 2.41,-3.171 4.13,-4.186c-0.77,-1.116 -1.19,-2.44 -1.19,-3.796c0,-3.81 3.2,-6.898 7.14,-6.898c1.52,-0.015 3.01,0.459 4.24,1.352c1.24,0.894 2.15,2.16 2.61,3.612c0.97,-1.531 2.32,-2.79 3.91,-3.658c1.6,-0.868 3.38,-1.317 5.2,-1.306c5.87,0 10.63,4.6 10.63,10.279c0.01,1.212 -0.22,2.414 -0.65,3.547c0.22,0 0.43,-0.033 0.65,-0.033c4.72,0 8.53,3.706 8.53,8.251c0,0.278 -0.02,0.556 -0.04,0.834c1.88,0.758 3.49,2.057 4.63,3.732c1.14,1.675 1.76,3.651 1.78,5.679c0,5.656 -4.75,10.245 -10.61,10.245c-0.62,0 -1.24,-0.052 -1.85,-0.156c0.03,0.341 0.05,0.686 0.05,1.034c0,6.349 -5.32,11.49 -11.9,11.49c-2.41,0.007 -4.77,-0.705 -6.77,-2.046c-1.62,1.329 -3.66,2.053 -5.75,2.046c-4.91,0 -8.9,-3.843 -8.9,-8.588c0,-0.204 0,-0.407 0.03,-0.608h-0.03c-5.25,0 -9.52,-4.118 -9.52,-9.196c0.02,-1.714 0.52,-3.388 1.45,-4.832c0.92,-1.445 2.23,-2.601 3.78,-3.337z" fill="#009688"/><path id="rect133" data-node-id="36:151" d="M600.93,312.606h-3.48v63.886h3.48z" fill="url(#paint13_linear_7_38)"/><path id="rect135" data-node-id="36:152" d="M600.21,312.606h-1.92v63.886h1.92z" fill="#795548"/><path id="rect138" data-node-id="36:154" d="M588.72,319.432l-1.37,1.347l11.4,11.638l1.38,-1.346z" fill="#795548"/><path id="rect141" data-node-id="36:156" d="M610.72,332.65l-11.83,8.299l1.11,1.575l11.82,-8.299z" fill="#795548"/><g id="&lt;Group>_3" data-node-id="36:157"><path id="path173" data-node-id="36:158" d="M744.51,328.103c-1.26,-1.443 -2.19,-3.139 -2.74,-4.974c-0.55,-1.835 -0.7,-3.766 -0.44,-5.664c0.27,-1.897 0.93,-3.716 1.96,-5.334c1.02,-1.617 2.38,-2.996 3.99,-4.043c-0.83,-1.285 -1.27,-2.782 -1.27,-4.311c-0.05,-1.868 0.59,-3.69 1.79,-5.119c1.2,-1.43 2.89,-2.369 4.74,-2.64c1.84,-0.27 3.73,0.147 5.29,1.172c1.56,1.026 2.69,2.589 3.18,4.392c1,-1.709 2.42,-3.129 4.14,-4.118c1.71,-0.989 3.65,-1.512 5.63,-1.519c6.3,0 11.41,5.226 11.41,11.668c0,1.373 -0.23,2.737 -0.7,4.029c0.23,0 0.47,-0.037 0.7,-0.037c5.06,0 9.16,4.192 9.16,9.367c0,0.318 0,0.633 -0.05,0.945c2.06,0.923 3.81,2.424 5.03,4.321c1.22,1.898 1.86,4.109 1.85,6.365c0,6.423 -5.09,11.631 -11.37,11.631c-0.66,-0.001 -1.32,-0.06 -1.97,-0.178c0.03,0.371 0.06,0.779 0.06,1.175c0,7.21 -5.72,13.051 -12.77,13.051c-2.6,0.002 -5.14,-0.811 -7.26,-2.324c-1.71,1.498 -3.91,2.324 -6.18,2.324c-5.26,0 -9.53,-4.366 -9.53,-9.752c0,-0.233 0,-0.463 0.03,-0.693h-0.03c-5.64,0 -10.21,-4.674 -10.21,-10.441c-0.01,-1.909 0.51,-3.784 1.49,-5.421c0.98,-1.638 2.38,-2.977 4.07,-3.872z" fill="url(#paint14_linear_7_38)"/></g><path id="&lt;Path>_4" data-node-id="36:159" d="M745.99,328.044c-1.19,-1.354 -2.07,-2.947 -2.58,-4.67c-0.52,-1.723 -0.66,-3.536 -0.41,-5.318c0.25,-1.781 0.87,-3.489 1.83,-5.008c0.97,-1.519 2.24,-2.814 3.75,-3.797c-0.78,-1.204 -1.19,-2.609 -1.19,-4.044c-0.04,-1.752 0.55,-3.461 1.68,-4.802c1.13,-1.341 2.71,-2.222 4.45,-2.476c1.73,-0.254 3.5,0.137 4.97,1.098c1.46,0.962 2.53,2.427 2.99,4.119c0.93,-1.604 2.27,-2.937 3.88,-3.865c1.6,-0.929 3.43,-1.421 5.28,-1.428c5.93,0 10.71,4.904 10.71,10.953c0,1.289 -0.22,2.568 -0.65,3.781c0.22,0 0.43,-0.033 0.65,-0.033c4.75,0 8.6,3.936 8.6,8.792c0,0.3 0,0.597 -0.05,0.886c1.94,0.866 3.57,2.275 4.72,4.056c1.15,1.781 1.75,3.856 1.74,5.974c0,6.03 -4.78,10.916 -10.67,10.916c-0.63,-0.001 -1.25,-0.057 -1.86,-0.167c0.04,0.371 0.05,0.741 0.05,1.112c0,6.764 -5.36,12.25 -11.98,12.25c-2.44,0 -4.82,-0.763 -6.81,-2.183c-1.61,1.405 -3.66,2.181 -5.79,2.183c-4.94,0 -8.95,-4.096 -8.95,-9.151c0,-0.219 0,-0.434 0.03,-0.649h-0.03c-5.29,0 -9.58,-4.389 -9.58,-9.8c-0.01,-1.793 0.47,-3.554 1.39,-5.093c0.92,-1.538 2.24,-2.796 3.83,-3.636z" fill="#00897B"/><path id="rect177" data-node-id="36:160" d="M767.66,314.062h-2.78v69.206h2.78z" fill="url(#paint15_linear_7_38)"/><path id="rect179" data-node-id="36:161" d="M766.87,315.034h-1.4v68.234h1.4z" fill="#795548"/><path id="rect181" data-node-id="36:162" d="M755.52,322.769l-1.03,0.952l11.48,12.402l1.03,-0.952z" fill="#795548"/><path id="rect183" data-node-id="36:163" d="M777.98,336.867l-11.91,8.844l0.83,1.125l11.91,-8.844z" fill="#795548"/><g id="&lt;Group>_4" data-node-id="36:164"><path id="path185" data-node-id="36:165" d="M761.98,335.798c1.87,-2 2.92,-4.64 2.92,-7.384c-0.01,-1.895 -0.5,-3.755 -1.45,-5.399c-0.94,-1.644 -2.29,-3.016 -3.92,-3.982c0.73,-1.062 1.11,-2.32 1.11,-3.607c0,-3.617 -3.03,-6.553 -6.78,-6.553c-1.44,-0.015 -2.86,0.435 -4.03,1.284c-1.17,0.849 -2.04,2.052 -2.47,3.431c-0.93,-1.454 -2.21,-2.65 -3.72,-3.474c-1.51,-0.825 -3.21,-1.252 -4.93,-1.241c-5.59,0 -10.11,4.37 -10.11,9.763c0,1.152 0.21,2.294 0.62,3.37c-0.2,0 -0.41,-0.03 -0.62,-0.03c-4.47,0 -8.11,3.506 -8.11,7.836c0,0.263 0.02,0.527 0.04,0.789c-1.78,0.72 -3.31,1.955 -4.4,3.546c-1.08,1.592 -1.67,3.469 -1.69,5.394c0,5.375 4.52,9.73 10.07,9.73c0.59,0 1.17,-0.05 1.75,-0.148c-0.03,0.322 -0.05,0.652 -0.05,0.982c0,6.031 5.06,10.92 11.3,10.92c2.29,0.005 4.53,-0.672 6.43,-1.946c1.55,1.275 3.48,1.971 5.49,1.968c4.66,0 8.44,-3.651 8.44,-8.154c0,-0.197 0,-0.371 -0.03,-0.579h0.03c4.99,0 9.04,-3.91 9.04,-8.736c-0.01,-1.629 -0.48,-3.221 -1.35,-4.596c-0.88,-1.376 -2.12,-2.479 -3.58,-3.184z" fill="url(#paint16_linear_7_38)"/></g><path id="&lt;Path>_5" data-node-id="36:166" d="M761.06,335.765c1.81,-1.913 2.81,-4.44 2.82,-7.069c-0.01,-1.812 -0.49,-3.59 -1.39,-5.161c-0.9,-1.571 -2.2,-2.882 -3.75,-3.805c0.7,-1.015 1.07,-2.218 1.07,-3.451c0,-3.462 -2.9,-6.272 -6.49,-6.272c-1.38,-0.014 -2.74,0.417 -3.86,1.23c-1.12,0.813 -1.95,1.965 -2.37,3.285c-0.88,-1.392 -2.1,-2.537 -3.55,-3.326c-1.45,-0.79 -3.08,-1.199 -4.73,-1.189c-5.34,0 -9.67,4.185 -9.67,9.345c0,1.102 0.2,2.195 0.6,3.224c-0.2,0 -0.4,-0.029 -0.6,-0.029c-4.28,0 -7.76,3.358 -7.76,7.498c0,0.248 0.02,0.495 0.04,0.742c-1.71,0.689 -3.17,1.87 -4.21,3.392c-1.04,1.523 -1.6,3.32 -1.62,5.162c0,5.145 4.32,9.315 9.64,9.315c0.56,0 1.12,-0.047 1.67,-0.141c-0.03,0.312 -0.05,0.623 -0.05,0.942c0,5.771 4.85,10.452 10.82,10.452c2.19,0.008 4.34,-0.637 6.16,-1.853c1.47,1.206 3.32,1.861 5.23,1.853c4.45,0 8.08,-3.495 8.08,-7.806c0,-0.185 0,-0.371 -0.03,-0.552h0.03c4.78,0 8.65,-3.744 8.65,-8.362c-0.01,-1.556 -0.47,-3.076 -1.3,-4.388c-0.84,-1.312 -2.02,-2.364 -3.43,-3.036z" fill="#009688"/><path id="rect190" data-node-id="36:168" d="M744.37,324.834h-3.17v58.086h3.17z" fill="url(#paint17_linear_7_38)"/><path id="rect192" data-node-id="36:169" d="M743.6,324.834h-1.75v58.086h1.75z" fill="#795548"/><path id="rect195" data-node-id="36:171" d="M752.3,331.039l-10.37,10.58l1.25,1.225l10.37,-10.58z" fill="#795548"/><path id="rect198" data-node-id="36:173" d="M732.3,343.067l-1,1.432l10.75,7.546l1,-1.432z" fill="#795548"/></g><path id="path1124" data-node-id="36:174" d="M677.79,583.37h2.96l2.83,-1.74l1.77,-1.1c9.81,-5.98 19.67,-11.73 29.58,-17.23c9.92,-5.5 19.88,-10.75 29.9,-15.74c0.26,-0.12 0.48,-0.32 0.61,-0.58c0.13,-0.26 0.17,-0.55 0.11,-0.84v-0.09c-0.14,-0.27 -0.46,-0.38 -0.91,-0.15l-3.77,1.89c-10.07,5.03 -20.07,10.36 -30,16c-9.93,5.64 -19.82,11.47 -29.67,17.5l-0.62,0.38z" fill="white"/><path id="rect1130" data-node-id="36:175" d="M478.882,142.002h-256.15c-3.367,0 -6.097,2.73 -6.097,6.097v386.821c0,3.37 2.73,6.1 6.097,6.1h256.15c3.368,0 6.097,-2.73 6.097,-6.1v-386.821c0,-3.367 -2.729,-6.097 -6.097,-6.097z" fill="#F9F9F9" stroke="#D1D1D1" stroke-width="2.07983" stroke-miterlimit="10"/><path id="rect1132" data-node-id="36:176" d="M452.646,177.828h-206.491c-3.502,0 -6.342,2.84 -6.342,6.343v63.177c0,3.503 2.84,6.342 6.342,6.342h206.491c3.503,0 6.342,-2.839 6.342,-6.342v-63.177c0,-3.503 -2.839,-6.343 -6.342,-6.343z" fill="#E6E8EC"/><path id="rect1134" data-node-id="36:177" opacity="0.1" d="M445.946,287.421h-30.823c-3.711,0 -6.72,3.009 -6.72,6.72v35.732c0,3.711 3.009,6.72 6.72,6.72h30.823c3.711,0 6.719,-3.009 6.719,-6.72v-35.732c0,-3.711 -3.008,-6.72 -6.719,-6.72z" fill="black"/><path id="rect1136" data-node-id="36:178" opacity="0.1" d="M391.85,287.421h-30.822c-3.712,0 -6.72,3.009 -6.72,6.72v35.732c0,3.711 3.008,6.72 6.72,6.72h30.822c3.711,0 6.72,-3.009 6.72,-6.72v-35.732c0,-3.711 -3.009,-6.72 -6.72,-6.72z" fill="black"/><path id="rect1138" data-node-id="36:179" opacity="0.1" d="M337.755,287.421h-30.823c-3.711,0 -6.719,3.009 -6.719,6.72v35.732c0,3.711 3.008,6.72 6.719,6.72h30.823c3.711,0 6.719,-3.009 6.719,-6.72v-35.732c0,-3.711 -3.008,-6.72 -6.719,-6.72z" fill="black"/><path id="rect1140" data-node-id="36:180" d="M283.66,287.421h-30.823c-3.711,0 -6.72,3.009 -6.72,6.72v35.732c0,3.711 3.009,6.72 6.72,6.72h30.823c3.711,0 6.719,-3.009 6.719,-6.72v-35.732c0,-3.711 -3.008,-6.72 -6.719,-6.72z" fill="#008996"/><path id="rect1142" data-node-id="36:181" opacity="0.1" d="M445.946,341.501h-30.823c-3.711,0 -6.72,3.008 -6.72,6.72v35.731c0,3.712 3.009,6.72 6.72,6.72h30.823c3.711,0 6.719,-3.008 6.719,-6.72v-35.731c0,-3.712 -3.008,-6.72 -6.719,-6.72z" fill="black"/><path id="rect1144" data-node-id="36:182" opacity="0.1" d="M391.85,341.501h-30.822c-3.712,0 -6.72,3.008 -6.72,6.72v35.731c0,3.712 3.008,6.72 6.72,6.72h30.822c3.711,0 6.72,-3.008 6.72,-6.72v-35.731c0,-3.712 -3.009,-6.72 -6.72,-6.72z" fill="black"/><path id="rect1146" data-node-id="36:183" opacity="0.1" d="M337.755,341.501h-30.823c-3.711,0 -6.719,3.008 -6.719,6.72v35.731c0,3.712 3.008,6.72 6.719,6.72h30.823c3.711,0 6.719,-3.008 6.719,-6.72v-35.731c0,-3.712 -3.008,-6.72 -6.719,-6.72z" fill="black"/><path id="rect1148" data-node-id="36:184" opacity="0.1" d="M445.946,401.224h-30.823c-3.711,0 -6.72,3.008 -6.72,6.719v35.732c0,3.712 3.009,6.72 6.72,6.72h30.823c3.711,0 6.719,-3.008 6.719,-6.72v-35.732c0,-3.711 -3.008,-6.719 -6.719,-6.719z" fill="black"/><path id="rect1150" data-node-id="36:185" opacity="0.1" d="M391.85,401.224h-30.822c-3.712,0 -6.72,3.008 -6.72,6.719v35.732c0,3.712 3.008,6.72 6.72,6.72h30.822c3.711,0 6.72,-3.008 6.72,-6.72v-35.732c0,-3.711 -3.009,-6.719 -6.72,-6.719z" fill="black"/><path id="rect1152" data-node-id="36:186" opacity="0.1" d="M337.755,401.224h-30.823c-3.711,0 -6.719,3.008 -6.719,6.719v35.732c0,3.712 3.008,6.72 6.719,6.72h30.823c3.711,0 6.719,-3.008 6.719,-6.72v-35.732c0,-3.711 -3.008,-6.719 -6.719,-6.719z" fill="black"/><path id="rect1154" data-node-id="36:187" opacity="0.1" d="M337.755,460.928h-30.823c-3.711,0 -6.719,3.009 -6.719,6.72v35.732c0,3.71 3.008,6.72 6.719,6.72h30.823c3.711,0 6.719,-3.01 6.719,-6.72v-35.732c0,-3.711 -3.008,-6.72 -6.719,-6.72z" fill="black"/><path id="rect1156" data-node-id="36:188" opacity="0.2" d="M283.358,341.501h-30.219c-3.878,0 -7.022,3.143 -7.022,7.022v35.127c0,3.878 3.144,7.022 7.022,7.022h30.219c3.877,0 7.021,-3.144 7.021,-7.022v-35.127c0,-3.879 -3.144,-7.022 -7.021,-7.022z" fill="black"/><path id="rect1158" data-node-id="36:189" opacity="0.1" d="M446.417,460.928h-85.861c-3.451,0 -6.248,2.797 -6.248,6.248v36.674c0,3.45 2.797,6.25 6.248,6.25h85.861c3.451,0 6.248,-2.8 6.248,-6.25v-36.674c0,-3.451 -2.797,-6.248 -6.248,-6.248z" fill="black"/><path id="rect1160" data-node-id="36:190" opacity="0.1" d="M287.359,401.224h-33.975c-4.003,0 -7.248,3.245 -7.248,7.248v94.398c0,4 3.245,7.25 7.248,7.25h33.975c4.003,0 7.248,-3.25 7.248,-7.25v-94.398c0,-4.003 -3.245,-7.248 -7.248,-7.248z" fill="black"/><path id="rect1162" data-node-id="36:191" d="M269.013,240.439h-19.366v2.096h19.366z" fill="#008996"/><path id="rect1164" data-node-id="36:192" d="M297.382,240.439h-19.366v2.096h19.366z" fill="#008996"/><path id="rect1166" data-node-id="36:193" d="M325.751,240.439h-19.366v2.096h19.366z" fill="#008996"/><path id="rect1168" data-node-id="36:194" d="M354.101,240.439h-19.366v2.096h19.366z" fill="#008996"/><path id="polygon1170" data-node-id="36:195" d="M175.072,531.18v-39.14l14.987,-0.02l-4.832,39.16z" fill="#FFB8B8"/><path id="path1174" data-node-id="36:196" d="M272.542,316.283c1.697,-1.078 2.949,-2.73 3.527,-4.656c0.579,-1.925 0.444,-3.994 -0.379,-5.828c-0.823,-1.834 -2.279,-3.31 -4.102,-4.158c-1.822,-0.848 -3.889,-1.011 -5.822,-0.459l-26.84,-1.076l-8.041,13.119l29.577,-0.982c0.437,1.136 1.118,2.163 1.995,3.008c0.877,0.845 1.928,1.487 3.08,1.881c1.152,0.394 2.376,0.531 3.586,0.4c1.211,-0.13 2.378,-0.525 3.419,-1.155z" fill="#FFB8B8"/><path id="path1176" data-node-id="36:197" d="M115.975,382.253c0.983,-0.504 1.856,-1.198 2.569,-2.041c0.713,-0.844 1.252,-1.821 1.585,-2.874c0.333,-1.053 0.455,-2.161 0.357,-3.262c-0.097,-1.1 -0.411,-2.17 -0.925,-3.148l-3.643,-26.615l-14.269,-5.474l6.153,28.937c-1.782,1.163 -3.055,2.961 -3.56,5.028c-0.506,2.068 -0.206,4.25 0.839,6.104c1.045,1.855 2.756,3.242 4.786,3.881c2.031,0.639 4.228,0.481 6.146,-0.441z" fill="#FFB8B8"/><path id="path1178" data-node-id="36:198" d="M172.487,527.86h19.988c1.673,0 3.33,0.33 4.876,0.97c1.545,0.64 2.95,1.58 4.133,2.76c1.183,1.19 2.121,2.59 2.762,4.14c0.64,1.54 0.97,3.2 0.97,4.87v0.42h-32.729z" fill="#2F2E41"/><path id="polygon1180" data-node-id="36:199" d="M125.394,531.18v-39.14l14.986,-0.02l-4.832,39.16z" fill="#FFB8B8"/><path id="path1182" data-node-id="36:200" d="M122.808,527.86h19.988c1.673,0 3.33,0.33 4.876,0.97c1.546,0.64 2.95,1.58 4.133,2.76c1.183,1.19 2.122,2.59 2.762,4.14c0.64,1.54 0.97,3.2 0.97,4.87v0.42h-32.729z" fill="#2F2E41"/><path id="path1184" data-node-id="36:201" d="M173.864,510.74c-0.921,0.01 -1.814,-0.32 -2.509,-0.93c-0.696,-0.6 -1.146,-1.44 -1.266,-2.35l-10.305,-85.567c-0.051,-0.289 -0.202,-0.55 -0.426,-0.739c-0.225,-0.188 -0.508,-0.291 -0.801,-0.291c-0.293,0 -0.577,0.103 -0.801,0.291c-0.224,0.189 -0.375,0.45 -0.426,0.739l-16.497,83.957c-0.176,0.85 -0.636,1.6 -1.302,2.15c-0.666,0.54 -1.498,0.85 -2.359,0.85h-12.194c-0.981,-0.03 -1.912,-0.44 -2.596,-1.14c-0.684,-0.71 -1.066,-1.65 -1.065,-2.63l2.416,-129.339l0.188,-0.113c17.667,-10.533 38.505,-11.212 63.684,-2.095l0.264,0.094l4.04,132.793c0.001,0.96 -0.368,1.89 -1.032,2.6c-0.663,0.7 -1.571,1.12 -2.536,1.17l-14.363,0.57z" fill="#2F2E41"/><path id="circle1186" data-node-id="36:202" d="M160.048,257.069c11.227,0 20.328,-9.102 20.328,-20.329c0,-11.228 -9.101,-20.329 -20.328,-20.329c-11.227,0 -20.328,9.101 -20.328,20.329c0,11.227 9.101,20.329 20.328,20.329z" fill="#FFB8B8"/><path id="path1188" data-node-id="36:203" d="M255.291,312.281c-0.271,0.449 -0.632,0.838 -1.061,1.14c-0.429,0.302 -0.916,0.512 -1.431,0.615l-26.708,5.229c-9.132,1.788 -18.603,0.198 -26.651,-4.474l-26.519,-15.384c-2.901,-1.067 -5.278,-3.212 -6.637,-5.988c-1.359,-2.776 -1.595,-5.97 -0.658,-8.915c0.936,-2.946 2.973,-5.417 5.685,-6.899c2.713,-1.482 5.892,-1.86 8.876,-1.056l43.281,22.198l26.67,1.17c0.763,0.039 1.497,0.309 2.103,0.774c0.607,0.465 1.058,1.104 1.294,1.831l2.114,6.757c0.224,0.726 0.224,1.502 0,2.228c-0.09,0.27 -0.21,0.53 -0.358,0.774z" fill="#3F3D56"/><path id="path1190" data-node-id="36:204" d="M105.896,361.207c-0.435,-0.288 -0.805,-0.663 -1.088,-1.102c-0.283,-0.439 -0.471,-0.931 -0.554,-1.446l-4.096,-26.917c-1.378,-9.204 0.635,-18.595 5.662,-26.426l16.497,-25.841c0.523,-1.507 1.34,-2.894 2.404,-4.081c1.065,-1.187 2.355,-2.15 3.796,-2.833c1.44,-0.683 3.002,-1.072 4.595,-1.145c1.593,-0.072 3.184,0.173 4.681,0.722c1.497,0.549 2.869,1.391 4.037,2.476c1.168,1.086 2.108,2.393 2.765,3.845c0.658,1.453 1.019,3.022 1.063,4.616c0.045,1.594 -0.229,3.18 -0.804,4.667l-24.009,42.301l-2.322,26.615c-0.072,0.762 -0.374,1.485 -0.866,2.071c-0.492,0.587 -1.151,1.01 -1.89,1.213l-6.832,1.888c-0.735,0.193 -1.511,0.16 -2.227,-0.094c-0.293,-0.141 -0.565,-0.319 -0.812,-0.529z" fill="#3F3D56"/><path id="path1192" data-node-id="36:205" d="M191.116,301.654l-4.813,32.277l3.775,47.511c0,0.101 0,0.201 0,0.302c0,0.496 -0.098,0.987 -0.287,1.445c-0.19,0.458 -0.468,0.874 -0.819,1.224c-0.35,0.351 -0.767,0.629 -1.225,0.819c-0.458,0.189 -0.948,0.287 -1.444,0.287h-0.208l-33.975,-1.888v-12.703l-7.134,12.326l-27.897,-1.491c-0.566,-0.041 -1.116,-0.208 -1.608,-0.49c-0.493,-0.283 -0.915,-0.672 -1.236,-1.14c-0.321,-0.468 -0.533,-1.002 -0.619,-1.563c-0.086,-0.561 -0.044,-1.135 0.122,-1.677l5.455,-16.988c5.836,-18.161 6.832,-37.531 2.888,-56.194c-1.04,-4.89 -1.023,-9.947 0.052,-14.83c1.074,-4.884 3.18,-9.481 6.176,-13.483c2.942,-3.942 6.692,-7.21 10.998,-9.586c4.307,-2.377 9.071,-3.806 13.974,-4.194h1.019c5.205,-0.34 10.42,0.491 15.262,2.431c4.842,1.94 9.188,4.941 12.719,8.781c3.53,3.84 6.155,8.422 7.683,13.41c1.527,4.988 1.917,10.255 1.142,15.414z" fill="#3F3D56"/><path id="path1194" data-node-id="36:206" d="M136.379,247.197c-0.766,-2.549 -0.844,-5.255 -0.228,-7.843c0.617,-2.589 1.906,-4.969 3.739,-6.899c-1.12,-1.01 -1.901,-2.339 -2.239,-3.808c-0.338,-1.469 -0.215,-3.006 0.351,-4.403c1.215,-2.77 3.234,-5.111 5.795,-6.72c4.104,-2.848 8.792,-4.746 13.722,-5.556c4.93,-0.809 9.979,-0.511 14.779,0.875c3.888,1.151 12.778,3.247 14.156,7.248c0.83,2.379 0.359,6.758 -1.51,8.438c-2.435,2.17 -5.663,1.283 -8.532,1.113c-0.845,-0.039 -1.687,0.117 -2.463,0.455c-0.776,0.338 -1.463,0.849 -2.01,1.494c-0.547,0.646 -0.939,1.408 -1.145,2.229c-0.206,0.82 -0.221,1.677 -0.044,2.504c0,0.321 0.132,0.661 0.17,0.982c0.158,1.749 -0.331,3.495 -1.375,4.908c-1.044,1.412 -2.569,2.393 -4.288,2.756c-2.906,0.547 -6.474,-0.604 -8.493,1.566c-0.48,0.635 -0.828,1.36 -1.022,2.132c-0.195,0.771 -0.232,1.574 -0.111,2.361c0.237,1.57 0.237,3.167 0,4.738c-0.528,2.114 -7.965,1.396 -9.852,0.302c-2.605,-1.529 -8.268,-5.135 -9.4,-8.872z" fill="#2F2E41"/></g></svg>