<svg viewBox="0 0 152.94461966277368 32.91362319224913" x="0" y="0" fill="none" xmlns="http://www.w3.org/2000/svg"><defs><clipPath id="clip1_131_2" xmlns="http://www.w3.org/2000/svg"><rect width="152" height="32" fill="white" transform="translate(0.4940098313868475, 0.45141159612467163)"/></clipPath></defs><g id="Intelo 2" data-node-id="252:535" clip-path="url(#clip1_131_2)" xmlns="http://www.w3.org/2000/svg"><g id="#070707ff_2" data-node-id="252:536"><path id="Vector_8" data-node-id="252:537" d="M134.69401,0.58141c2.98,-0.29 6.04,0.19 8.74,1.52c2.43,1.22 4.59,3.01 6.16,5.26c1.45,2.04 2.36,4.44 2.71,6.92c0.38,2.89 -0.01,5.89 -1.17,8.55c-1.68,3.8 -4.85,6.91 -8.67,8.4c-2.95,1.26 -6.28,1.46 -9.4,0.85c-4.9,-1 -9.29,-4.47 -11.32,-9.14c-1.35,-3 -1.72,-6.43 -1.07,-9.66c0.49,-2.35 1.48,-4.59 2.94,-6.47c2.67,-3.48 6.75,-5.83 11.08,-6.23zM135.43401,7.97141c-2.35,0.23 -4.56,1.55 -5.9,3.52c-0.98,1.4 -1.52,3.13 -1.5,4.85c-0.01,1.55 0.43,3.09 1.22,4.4c1.34,2.23 3.71,3.82 6.27,4.1c2.88,0.38 5.89,-0.92 7.65,-3.27c0.94,-1.22 1.52,-2.72 1.69,-4.27c0.03,-0.59 0.03,-1.18 0,-1.77c-0.17,-1.59 -0.78,-3.14 -1.78,-4.38c-1.79,-2.31 -4.81,-3.48 -7.65,-3.18z" fill="#070707"/><path id="Vector_9" data-node-id="252:538" d="M4.75301,1.24141c1.103,-0.04 2.206,0.01 3.308,-0.04c0,0.36 0.008,0.73 -0.014,1.09c-0.016,1.1 0.019,2.21 -0.022,3.31c-0.006,1.64 0.02,3.29 -0.018,4.93c0.001,3.77 0.001,7.55 0,11.33c0.042,1.93 0.004,3.87 0.023,5.81c0.041,1.32 -0.012,2.64 0.028,3.95c-2.517,-0.06 -5.037,-0.08 -7.554,0.01c0.029,-3.8 0.055,-7.6 0.043,-11.39c0.036,-1.01 0.013,-2.01 0.02,-3.02c-0.007,-0.81 0.016,-1.62 -0.018,-2.42c0,-2.6 -0.001,-5.2 0,-7.8c-0.037,-1.92 -0.011,-3.85 -0.019,-5.78c1.409,0.01 2.817,-0.01 4.223,0.02z" fill="#070707"/><path id="Vector_10" data-node-id="252:539" d="M15.70101,1.22141c2.468,-0.01 4.937,0.02 7.404,-0.01c0.016,0.01 0.048,0.03 0.064,0.05c4.731,6.19 9.368,12.47 14.064,18.69c-0.043,-6.23 -0.009,-12.47 -0.022,-18.7c2.496,-0.05 4.994,-0.01 7.491,-0.03c-0.002,1.63 -0.022,3.26 -0.013,4.9c0.016,1.91 -0.053,3.82 0.001,5.73c-0.01,6.58 0.023,13.16 -0.038,19.73c-2.482,0 -4.964,0.01 -7.447,0c-4.668,-6.24 -9.35,-12.47 -14.023,-18.7c-0.034,0.91 -0.018,1.82 -0.021,2.73c0.001,5.32 -0.004,10.64 0.003,15.97c-2.494,0.01 -4.989,0.01 -7.483,0c0.005,-7.61 0.001,-15.21 0.002,-22.82c-0.012,-2.51 0.019,-5.02 0.018,-7.54z" fill="#070707"/><path id="Vector_11" data-node-id="252:540" d="M75.82701,1.24141c1.066,0.01 2.131,-0.03 3.198,-0.02c4.238,0.03 8.475,0.09 12.712,0.11c0.235,-0.01 0.471,-0.02 0.707,-0.01c-0.005,2.24 -0.001,4.48 -0.002,6.73c-3.046,-0.04 -6.094,-0.02 -9.14,-0.02c0.002,5.59 0.003,11.19 -0.001,16.78c3.039,0.02 6.079,-0.02 9.118,0.03c0.05,0.82 0.01,1.64 0.023,2.46c-0.007,1.44 0.014,2.88 -0.01,4.31c-0.76,-0.05 -1.522,-0.01 -2.282,-0.02c-4.774,0 -9.549,0 -14.323,-0.01c-0.002,-10.11 -0.002,-20.22 0,-30.34z" fill="#070707"/><path id="Vector_12" data-node-id="252:541" d="M99.79201,1.22141c2.491,0 4.982,0.01 7.473,0c0.015,7.87 -0.006,15.75 0.01,23.62c3.044,-0.04 6.089,-0.02 9.133,0c0,2.25 0.001,4.51 0,6.77c-1.795,-0.05 -3.591,-0.01 -5.385,-0.02c-3.741,0 -7.482,-0.01 -11.223,0c-0.018,-10.12 -0.003,-20.25 -0.008,-30.37z" fill="#070707"/><path id="Vector_13" data-node-id="252:542" d="M50.25201,1.30141c1.568,0.04 3.138,0 4.706,-0.01c3.324,-0.05 6.651,-0.13 9.975,0.01c1.754,0 3.509,-0.02 5.263,0c-0.012,2.24 -0.003,4.49 -0.005,6.73c-2.077,0 -4.154,0 -6.231,0c-0.051,4.73 0.013,9.46 0,14.19c0.008,3.13 -0.022,6.25 -0.037,9.37c-1.829,0 -3.658,0 -5.487,0c-0.647,0.01 -1.298,-0.04 -1.943,0.02c-0.024,-3.67 -0.004,-7.33 -0.01,-11c0,-4.2 0,-8.39 0,-12.58c-2.085,-0.01 -4.17,0.01 -6.253,-0.01c0.011,-2.24 -0.011,-4.48 0.022,-6.72z" fill="#070707"/></g><g id="#882df8ff_2" data-node-id="252:543"><path id="Vector_14" data-node-id="252:544" d="M88.31201,12.35141c1.508,-0.21 3.104,0.56 3.892,1.89c0.346,0.62 0.577,1.31 0.587,2.03c0.044,1.38 -0.617,2.78 -1.728,3.58c-0.583,0.42 -1.294,0.63 -2.002,0.69c-1.853,0.11 -3.656,-1.32 -4.002,-3.18c-0.42,-1.76 0.436,-3.75 2.012,-4.6c0.388,-0.2 0.807,-0.35 1.241,-0.41z" fill="#008996"/></g></g></svg>