<svg width="158" height="33" viewBox="0 0 158 33" fill="none" xmlns="http://www.w3.org/2000/svg">
<g clip-path="url(#clip0_7_39)">
<path d="M139.497 0.137344C142.591 -0.163829 145.778 0.334585 148.585 1.7039C151.105 2.96245 153.353 4.80969 154.988 7.12879C156.492 9.22486 157.442 11.7078 157.8 14.2674C158.198 17.2404 157.796 20.3333 156.581 23.0758C154.838 26.994 151.549 30.2022 147.572 31.7438C144.503 33.0448 141.051 33.2504 137.802 32.6215C132.706 31.5882 128.148 28.0106 126.031 23.1949C124.629 20.1035 124.245 16.5584 124.924 13.2296C125.429 10.8111 126.467 8.50038 127.985 6.55755C130.756 2.97231 135.001 0.550792 139.497 0.137344ZM140.262 7.75617C137.826 7.9921 135.525 9.35155 134.13 11.3831C133.117 12.8336 132.557 14.608 132.575 16.3855C132.562 17.9801 133.02 19.5702 133.846 20.9273C135.24 23.229 137.698 24.8585 140.362 25.1544C143.351 25.5451 146.488 24.2084 148.311 21.7846C149.293 20.5215 149.896 18.9724 150.073 17.3793C150.102 16.7693 150.1 16.1587 150.074 15.5495C149.892 13.9078 149.256 12.3132 148.222 11.0296C146.357 8.6521 143.223 7.44665 140.262 7.75617Z" fill="#070707"/>
<path d="M4.42708 0.816356C5.57303 0.768563 6.72048 0.826218 7.86568 0.775391C7.86568 1.14939 7.87394 1.52415 7.85141 1.89815C7.83414 3.03608 7.87094 4.17553 7.82814 5.31346C7.82138 7.0067 7.84841 8.7007 7.80936 10.3932C7.81086 14.2872 7.81011 18.1812 7.80936 22.0759C7.85292 24.0734 7.81312 26.0731 7.83339 28.0713C7.87544 29.4293 7.82063 30.7902 7.86193 32.1481C5.24562 32.0784 2.6263 32.0647 0.00998831 32.155C0.0407773 28.2382 0.0678115 24.3215 0.0550453 20.4039C0.0925929 19.3692 0.0685625 18.3337 0.075321 17.2989C0.0685625 16.4637 0.0925929 15.6284 0.0565472 14.7947C0.0572982 12.1145 0.0557963 9.43505 0.0572982 6.7556C0.0182488 4.77029 0.0460339 2.78346 0.0377735 0.797391C1.50138 0.799666 2.96498 0.783735 4.42708 0.816356Z" fill="#070707"/>
<path d="M15.8068 0.798158C18.372 0.78602 20.9388 0.814847 23.5033 0.782227C23.5198 0.794364 23.5528 0.81864 23.5701 0.830778C28.4873 7.22292 33.3077 13.6909 38.1888 20.1119C38.1438 13.6818 38.1791 7.25099 38.1656 0.820916C40.7601 0.770847 43.3569 0.810296 45.9529 0.793606C45.9507 2.47699 45.9296 4.16037 45.9394 5.84374C45.9559 7.81616 45.8838 9.78781 45.9402 11.7595C45.9304 18.5423 45.9642 25.3266 45.9011 32.108C43.3208 32.1057 40.7406 32.1163 38.1603 32.1034C33.3077 25.6688 28.4408 19.2455 23.5829 12.8155C23.5483 13.7539 23.5641 14.6923 23.5611 15.63C23.5626 21.1208 23.5573 26.611 23.5641 32.1019C20.9718 32.114 18.3788 32.1125 15.7865 32.1026C15.7917 24.2593 15.7872 16.4151 15.7887 8.57174C15.776 5.9803 15.8075 3.38961 15.8068 0.798158Z" fill="#070707"/>
<path d="M78.3061 0.816361C79.4145 0.826223 80.5214 0.782982 81.6306 0.796637C86.0357 0.823189 90.44 0.891465 94.8451 0.908913C95.0891 0.898292 95.3339 0.882361 95.5795 0.896775C95.5742 3.20905 95.578 5.52057 95.5772 7.83284C92.4112 7.79188 89.243 7.82147 86.0762 7.81691C86.0785 13.5855 86.08 19.354 86.0755 25.1233C89.2347 25.1468 92.3947 25.1051 95.554 25.1476C95.605 25.9935 95.5637 26.8424 95.5772 27.6897C95.5697 29.1728 95.5915 30.656 95.5667 32.1383C94.7775 32.0799 93.9852 32.1208 93.1952 32.1087C88.2322 32.1087 83.2692 32.1095 78.3061 32.1079C78.3046 21.6777 78.3046 11.2466 78.3061 0.816361Z" fill="#070707"/>
<path d="M103.218 0.797372C105.807 0.793579 108.396 0.801165 110.985 0.793579C111.002 8.91234 110.979 17.0319 110.996 25.1514C114.16 25.1142 117.326 25.1294 120.49 25.1491C120.49 27.4765 120.491 29.804 120.489 32.1314C118.624 32.0806 116.757 32.1223 114.892 32.1087C111.003 32.111 107.115 32.1041 103.226 32.1125C103.207 21.6739 103.223 11.2352 103.218 0.797372Z" fill="#070707"/>
<path d="M51.7217 0.871688C53.352 0.921757 54.9839 0.877757 56.6142 0.864102C60.0693 0.81024 63.5274 0.730585 66.9825 0.872447C68.8058 0.878516 70.6299 0.860309 72.4532 0.88155C72.4412 3.19155 72.4502 5.50231 72.4487 7.81231C70.2897 7.8161 68.1307 7.81231 65.9718 7.81459C65.9184 12.694 65.9845 17.575 65.971 22.4552C65.98 25.6733 65.9485 28.8906 65.9327 32.1087C64.0321 32.1094 62.1306 32.1087 60.2292 32.1087C59.5564 32.1253 58.8798 32.0738 58.2092 32.1367C58.1852 28.3542 58.2054 24.5702 58.1987 20.787C58.1987 16.4629 58.1987 12.1387 58.1987 7.81383C56.0322 7.80927 53.8649 7.82293 51.6992 7.807C51.7112 5.49548 51.6879 3.18321 51.7217 0.871688Z" fill="#070707"/>
<path d="M91.2848 12.2715C92.852 12.0545 94.5109 12.8503 95.3302 14.2196C95.6899 14.8554 95.9294 15.5761 95.9407 16.3134C95.9858 17.7404 95.2994 19.1772 94.1437 20.0041C93.5384 20.4419 92.7987 20.6573 92.0628 20.7187C90.1373 20.8287 88.263 19.3525 87.9033 17.4377C87.467 15.6231 88.3561 13.5703 89.9947 12.6948C90.3979 12.4854 90.8335 12.3307 91.2848 12.2715Z" fill="#008996"/>
</g>
<defs>
<clipPath id="clip0_7_39">
<rect width="158" height="33" fill="white"/>
</clipPath>
</defs>
</svg>
